HIERARCHY
ROOT SpineBase
{
  OFFSET 0.000000 0.000000 0.000000
  CHANNELS 6 Xposition Yposition Zposition Zrotation Xrotation Yrotation
  JOINT SpineMid
  {
    OFFSET 0.000000 30.908586 0.000000
    CHANNELS 3 Zrotation Xrotation Yrotation
    JOINT SpineShoulder
    {
      OFFSET 0.103263 22.978572 -0.765057
      CHANNELS 3 Zrotation Xrotation Yrotation
      JOINT Neck
      {
        OFFSET 0.050767 7.600642 -0.577307
        CHANNELS 3 Zrotation Xrotation Yrotation
        JOINT Head
        {
          OFFSET 3.742383 12.210325 3.656196
          CHANNELS 3 Zrotation Xrotation Yrotation
          End Site
          {
            OFFSET 0 0 0
          }
        }
      }
      JOINT ShoulderLeft
      {
        OFFSET -4.248173 -4.469309 -12.267104
        CHANNELS 3 Zrotation Xrotation Yrotation
        JOINT ElbowLeft
        {
          OFFSET 1.368095 -25.404602 -5.992121
          CHANNELS 3 Zrotation Xrotation Yrotation
          JOINT WristLeft
          {
            OFFSET 3.616831 -24.547845 -2.313702
            CHANNELS 3 Zrotation Xrotation Yrotation
            JOINT HandLeft
            {
              OFFSET -0.020892 -9.212411 -0.855027
              CHANNELS 3 Zrotation Xrotation Yrotation
              JOINT HandTipLeft
              {
                OFFSET 3.414295 -6.160737 -3.088508
                CHANNELS 3 Zrotation Xrotation Yrotation
                End Site
                {
                  OFFSET 0 0 0
                }
              }
              JOINT ThumbLeft
              {
                OFFSET 2.349354 1.733776 7.468678
                CHANNELS 3 Zrotation Xrotation Yrotation
                End Site
                {
                  OFFSET 0 0 0
                }
              }
            }
          }
        }
      }
      JOINT ShoulderRight
      {
        OFFSET 6.895051 -5.006995 14.873545
        CHANNELS 3 Zrotation Xrotation Yrotation
        JOINT ElbowRight
        {
          OFFSET -0.502919 -25.951457 -5.784317
          CHANNELS 3 Zrotation Xrotation Yrotation
          JOINT WristRight
          {
            OFFSET 10.073213 -21.905556 -2.414670
            CHANNELS 3 Zrotation Xrotation Yrotation
            JOINT HandRight
            {
              OFFSET 3.332993 -7.384201 -0.415140
              CHANNELS 3 Zrotation Xrotation Yrotation
              JOINT HandTipRight
              {
                OFFSET 0.463521 0.507092 -0.231764
                CHANNELS 3 Zrotation Xrotation Yrotation
                End Site
                {
                  OFFSET 0 0 0
                }
              }
              JOINT ThumbRight
              {
                OFFSET 0.991330 0.211295 -0.906046
                CHANNELS 3 Zrotation Xrotation Yrotation
                End Site
                {
                  OFFSET 0 0 0
                }
              }
            }
          }
        }
      }
    }
  }
  JOINT HipLeft
  {
    OFFSET -1.988325 0.824122 -7.801537
    CHANNELS 3 Zrotation Xrotation Yrotation
    JOINT KneeLeft
    {
      OFFSET -4.138033 -39.134989 -5.173225
      CHANNELS 3 Zrotation Xrotation Yrotation
      JOINT AnkleLeft
      {
        OFFSET -10.258925 -37.610752 3.531578
        CHANNELS 3 Zrotation Xrotation Yrotation
        JOINT FootLeft
        {
          OFFSET 1.674003 -6.993245 0.814244
          CHANNELS 3 Zrotation Xrotation Yrotation
          End Site
          {
            OFFSET 0 0 0
          }
        }
      }
    }
  }
  JOINT HipRight
  {
    OFFSET 2.481493 1.257154 0.739721
    CHANNELS 3 Zrotation Xrotation Yrotation
    JOINT KneeRight
    {
      OFFSET -4.362872 -24.172228 -23.202869
      CHANNELS 3 Zrotation Xrotation Yrotation
      JOINT AnkleRight
      {
        OFFSET -7.206668 -40.201442 20.302947
        CHANNELS 3 Zrotation Xrotation Yrotation
        JOINT FootRight
        {
          OFFSET 9.704230 -3.917033 -7.324512
          CHANNELS 3 Zrotation Xrotation Yrotation
          End Site
          {
            OFFSET 0 0 0
          }
        }
      }
    }
  }
}
MOTION
Frames: 10
Frame Time: 0.033333
-27.565081 81.778081 311.001303 -0.756770 -0.867034 -45.325385 0.359349 0.211463 45.307844 0.366942 -0.284588 0.013718 2.866254 -0.054914 -0.505029 0.000000 0.000000 0.000000 6.492715 9.919825 -1.675930 -4.614274 0.284877 1.826196 -3.518522 23.654235 -0.979271 -24.059687 -24.209539 4.701596 0.000000 0.000000 0.000000 0.000000 0.000000 0.000000 -0.013081 1.258508 -0.009264 -34.526052 35.733304 35.141557 -36.809965 -0.531641 -26.454858 -87.463366 -76.776218 -93.882909 0.000000 0.000000 0.000000 0.000000 0.000000 0.000000 -0.042026 2.883934 45.026023 -1.312724 0.197630 -0.105988 31.655845 27.025839 3.554907 0.000000 0.000000 0.000000 -4.026412 2.494054 46.471129 -1.962988 -1.306093 -3.468846 -23.622850 -23.470398 -53.228596 0.000000 0.000000 0.000000
-27.607044 81.754893 310.951061 -0.718960 -0.857599 -38.454219 0.197081 0.137999 38.434695 0.431392 -0.341951 0.013100 3.600159 -0.266156 -0.653679 0.000000 0.000000 0.000000 12.281054 11.951784 -3.626536 -6.518843 1.619731 2.826209 -0.897571 23.283394 -2.903791 -22.001645 -23.042520 5.415017 0.000000 0.000000 0.000000 0.000000 0.000000 0.000000 0.047486 1.214126 -0.005010 -32.466990 41.983702 38.840080 -20.426598 5.228995 -9.588207 -105.879116 -50.546522 -100.711447 0.000000 0.000000 0.000000 0.000000 0.000000 0.000000 0.640321 2.930085 38.104907 -2.015181 0.786718 -0.233198 24.231654 17.310167 4.537361 0.000000 0.000000 0.000000 -2.891067 1.428155 40.118477 -2.069015 2.033969 -4.457943 -29.943933 -25.541088 -65.712302 0.000000 0.000000 0.000000
-27.511600 81.649897 311.062141 -0.494130 -1.064496 -29.172633 -0.108504 0.207310 29.156684 0.428115 -0.375715 0.012726 4.131556 -0.493775 -0.739602 0.000000 0.000000 0.000000 18.600763 13.211023 -5.912343 -4.085748 3.738951 3.671572 2.408009 23.834054 -5.924368 -22.981959 -26.145926 2.496839 0.000000 0.000000 0.000000 0.000000 0.000000 0.000000 0.059797 1.206400 -0.004149 -23.020263 48.268939 36.992293 -7.805226 7.624605 -0.695828 -115.729856 -38.682450 -95.023205 0.000000 0.000000 0.000000 0.000000 0.000000 0.000000 0.424239 3.157888 28.805496 -1.882937 0.700062 -0.321077 21.410558 12.162590 4.568165 0.000000 0.000000 0.000000 -2.022112 -0.400813 31.615263 -1.716951 6.320442 -5.539934 -21.730797 -26.849060 -56.512645 0.000000 0.000000 0.000000
-27.254874 81.497391 311.357779 -0.084642 -1.534695 -16.400532 -0.461629 0.467793 16.397005 0.348965 -0.396567 0.011296 4.403750 -0.531711 -0.778260 0.000000 0.000000 0.000000 25.158046 13.594315 -8.358385 -0.445320 5.696638 4.219739 3.022510 18.174855 -7.145547 -25.346007 -20.772244 2.488491 0.000000 0.000000 0.000000 0.000000 0.000000 0.000000 0.046593 1.352192 -0.006048 -9.159728 53.059799 30.583795 -2.967638 15.560078 5.165092 -117.903175 -26.245334 -92.353873 0.000000 0.000000 0.000000 0.000000 0.000000 0.000000 -0.858953 4.088603 16.118772 0.091736 -0.053010 -0.360832 23.522719 13.033025 4.836727 0.000000 0.000000 0.000000 -3.879301 1.157887 19.667058 -0.458184 6.776806 -6.551394 -16.339899 -27.226741 -47.443985 0.000000 0.000000 0.000000
-26.930662 81.353211 311.656048 0.353090 -2.026530 -10.279097 -0.724724 0.721584 10.295287 0.204661 -0.395170 0.008693 4.528925 -0.413625 -0.806028 0.000000 0.000000 0.000000 30.956303 12.966213 -10.450779 3.587094 6.213352 4.541104 1.789843 12.783742 -6.895172 -26.066874 -14.314842 2.068876 0.000000 0.000000 0.000000 0.000000 0.000000 0.000000 0.026838 1.582278 -0.008911 11.001314 53.605654 17.881019 -0.219674 20.636725 6.434798 -122.062141 -9.524706 -86.188324 0.000000 0.000000 0.000000 0.000000 0.000000 0.000000 -2.886556 4.938319 10.285518 3.520721 -0.450363 -0.358554 30.196985 19.826330 4.752495 0.000000 0.000000 0.000000 -5.915831 4.111170 14.418545 1.291799 5.419181 -7.222712 -12.147831 -26.253098 -36.451875 0.000000 0.000000 0.000000
-26.715229 81.175042 311.847714 0.575969 -2.383616 -10.197965 -0.827513 0.806583 10.228309 0.061341 -0.401973 0.005511 4.649591 -0.176151 -0.855887 0.000000 0.000000 0.000000 36.185570 12.103148 -12.282412 7.242611 6.505001 4.788107 -5.326571 6.262370 -5.190843 -21.074964 -5.305084 2.196609 0.000000 0.000000 0.000000 0.000000 0.000000 0.000000 0.034717 1.845068 -0.010259 25.573023 52.118225 8.775469 2.467853 23.808163 6.266864 -125.532101 8.034053 -82.519073 0.000000 0.000000 0.000000 0.000000 0.000000 0.000000 -3.439368 5.845200 10.215054 3.765948 -0.976911 -0.296446 31.268158 22.840933 4.613264 0.000000 0.000000 0.000000 -8.185543 7.802356 15.153740 3.349747 2.056933 -7.217110 -7.983748 -22.840708 -22.707043 0.000000 0.000000 0.000000
-26.486779 80.303052 312.046230 0.781295 -2.716797 -12.367577 -0.936888 0.812678 12.412599 -0.088896 -0.384384 0.002449 4.612803 0.117738 -0.872805 0.000000 0.000000 0.000000 40.026210 11.015600 -13.525574 9.869894 5.418090 5.258033 0.273285 -2.069647 -1.386213 -30.593643 2.027982 -0.105034 0.000000 0.000000 0.000000 0.000000 0.000000 0.000000 0.049287 2.106480 -0.011250 34.945018 49.768046 3.122586 6.946099 28.346225 6.301742 -117.881109 33.188423 -88.768528 0.000000 0.000000 0.000000 0.000000 0.000000 0.000000 -3.728062 7.191475 12.250305 2.796677 -2.209051 -0.130773 40.017606 32.042967 2.736625 0.000000 0.000000 0.000000 -10.979390 11.124794 18.297784 4.339910 -1.053842 -7.735133 -12.071696 -25.615586 -25.046861 0.000000 0.000000 0.000000
-26.573795 79.858628 312.012997 0.519795 -2.741261 -18.726026 -0.714839 0.618963 18.760086 -0.139331 -0.394975 0.000022 4.630787 0.366788 -0.890728 0.000000 0.000000 0.000000 42.214256 9.749255 -14.049235 12.093353 4.974206 5.375720 3.186563 -6.410166 1.511088 -35.028196 4.499195 -1.920011 0.000000 0.000000 0.000000 0.000000 0.000000 0.000000 0.098406 2.320458 -0.010035 39.846514 47.796826 0.301853 14.660624 32.968327 6.273751 -123.490785 11.320881 -84.456963 0.000000 0.000000 0.000000 0.000000 0.000000 0.000000 -4.059633 6.935092 18.589429 2.471277 -2.304847 -0.104051 48.957662 40.485142 -0.797960 0.000000 0.000000 0.000000 -13.201713 12.759377 24.672984 4.321219 -3.873687 -7.348154 -23.324551 -30.059205 -35.772962 0.000000 0.000000 0.000000
-26.888371 79.728382 311.718738 -0.040084 -2.435696 -21.294820 -0.201174 0.397855 21.301918 -0.111875 -0.428015 -0.003608 4.556203 0.535087 -0.860861 0.000000 0.000000 0.000000 44.911842 8.850662 -14.768356 12.785054 4.550569 5.713253 -4.054983 -12.444229 4.332247 -35.219987 9.156538 -0.134352 0.000000 0.000000 0.000000 0.000000 0.000000 0.000000 0.195051 2.419960 -0.005479 43.373980 46.562483 -1.591685 24.888848 38.172912 5.273139 -133.106119 21.093225 -83.403100 0.000000 0.000000 0.000000 0.000000 0.000000 0.000000 -3.330173 6.062345 21.148596 2.553058 -1.667280 -0.133662 50.774400 42.217299 -1.891920 0.000000 0.000000 0.000000 -13.356562 13.162565 26.955370 4.142387 -5.299171 -6.854472 -41.015371 -31.505808 -58.135416 0.000000 0.000000 0.000000
-27.177610 79.878344 311.447814 -0.520580 -2.195755 -28.102084 0.152186 0.295434 28.088132 -0.039790 -0.432855 -0.006656 4.494536 0.601048 -0.822245 0.000000 0.000000 0.000000 46.205548 8.390490 -15.064193 11.876604 4.350383 5.911200 0.580775 -18.648550 8.662102 -55.610819 -2.708330 3.973062 0.000000 0.000000 0.000000 0.000000 0.000000 0.000000 0.286625 2.439690 -0.000631 44.122773 46.418397 -1.975816 29.356333 35.700956 5.760266 -130.914482 14.097661 -80.914743 0.000000 0.000000 0.000000 0.000000 0.000000 0.000000 -2.618241 5.003739 27.929195 2.090119 -0.707860 -0.221330 51.721494 42.135004 -2.144258 0.000000 0.000000 0.000000 -13.246938 11.560285 32.909731 3.463833 -5.862412 -5.984528 -60.938420 -25.161937 -83.203648 0.000000 0.000000 0.000000
